<svg xmlns="http://www.w3.org/2000/svg" viewBox="185.76 168 128.48 173.08">
  <path fill="#4a4a4a" d="M246.9 260l.047 50.48c-10.324-21.722-32.47-36.78-58.076-36.78-1.719 0-3.11 1.391-3.11 3.11 0 35.439 28.833 64.272 64.272 64.272.017.002.033.002.044 0 .096 0 .189-.02.285-.029.051.002.097.029.147.029.079 0 .154-.04.235-.046 35.082-.417 63.495-29.072 63.495-64.253 0-1.718-1.391-3.11-3.11-3.11-25.505 0-47.585 14.934-57.962 36.515L253.2 260m-61.131 20.007c27.601 1.506 50.126 22.378 54.195 49.229l-24.952-24.95c-1.214-1.218-3.185-1.218-4.398 0-1.216 1.216-1.216 3.183 0 4.398l25.687 25.688c-27.474-3.527-49.003-26.32-50.532-54.365m66.631 54.172l24.953-24.955c1.216-1.215 1.216-3.184 0-4.398-1.214-1.218-3.185-1.218-4.399 0l-25.687 25.69c3.527-27.474 26.319-49.005 54.364-50.535-1.505 27.602-22.378 50.129-49.231 54.198"/>
  <path fill="none" stroke="#4a4a4a" stroke-linecap="round" stroke-linejoin="round" stroke-miterlimit="10" stroke-width="6" d="M276.867 183.754c-10.149 0-19.702-4.798-26.866-12.683-7.166 7.885-16.72 12.683-26.869 12.683-4.18 0-8.061-1.028-11.942-2.399 0 47.995 16.42 67.195 38.811 78.849 22.39-11.654 38.808-30.854 38.808-78.849-3.881 1.371-7.762 2.399-11.942 2.399z" class="st0"/>
  <path fill="none" stroke="#4a4a4a" stroke-linecap="round" stroke-linejoin="round" stroke-miterlimit="10" stroke-width="6" d="M232.953 223.689c5.893 11.791 15.17 17.814 16.81 17.808 3.974-.015 19.923-16.133 24.665-40.989" class="st0"/>
</svg>