<svg width="130" height="175" xmlns="http://www.w3.org/2000/svg" viewbox="0 0 130 175">
 <g>
  <g>
   <path fill="#4a4a4a" d="m37.466394,72.001784c6.60631,5.923731 15.104526,9.74705 24.480657,10.438408l0,61.539639c-10.324279,-21.721809 -32.469682,-36.780245 -58.076265,-36.780245c-1.718518,0 -3.110014,1.391495 -3.110014,3.110014c0,35.43923 28.83292,64.272149 64.272149,64.272149c0.017558,0.002195 0.032922,0.002195 0.043896,0c0.096571,0 0.188752,-0.019753 0.285322,-0.028532c0.05048,0.002195 0.096571,0.028532 0.147051,0.028532c0.079012,0 0.153635,-0.039506 0.234842,-0.046091c35.081479,-0.41701 63.495195,-29.072152 63.495195,-64.252396c0,-1.718518 -1.391495,-3.110014 -3.110014,-3.110014c-25.505622,0 -47.585182,14.933332 -57.962136,36.514675l0,-61.247733c21.315774,-1.626337 38.17174,-19.454594 38.17174,-41.178598l0,-37.638406c0.002195,-0.094376 -0.013169,-0.184362 -0.019753,-0.278738c-0.017558,-0.276543 -0.070233,-0.542112 -0.15583,-0.796708c-0.032922,-0.096571 -0.059259,-0.190946 -0.10096,-0.285322c-0.138272,-0.30727 -0.327023,-0.583813 -0.550892,-0.82963c-0.028532,-0.030727 -0.037311,-0.070233 -0.065844,-0.10096c-0.024143,-0.024143 -0.057064,-0.030727 -0.081207,-0.05487c-0.267764,-0.252401 -0.575034,-0.465295 -0.919616,-0.610151c-0.035117,-0.015364 -0.070233,-0.019753 -0.10535,-0.032922c-0.337997,-0.129492 -0.700137,-0.20631 -1.08203,-0.2107c-0.006584,0 -0.010974,-0.002195 -0.017558,-0.002195c-0.00439,0 -0.008779,-0.002195 -0.013169,-0.002195c-0.908642,0 -1.718518,0.395062 -2.286968,1.016186l-0.291907,0.291907c-0.386283,0.15583 -0.748422,0.384088 -1.057887,0.700137l-15.756378,16.030726l-17.12812,-17.12812c-1.165432,-1.165432 -3.232922,-1.167627 -4.398354,0l-16.66063,16.66063l-16.662825,-16.66063c-0.019753,-0.019753 -0.048285,-0.026337 -0.070233,-0.046091c-0.269959,-0.258985 -0.583813,-0.474074 -0.934979,-0.621125c-0.030727,-0.013169 -0.061454,-0.017558 -0.094376,-0.028532c-0.340192,-0.131687 -0.704527,-0.208505 -1.088614,-0.212894c-0.00439,0 -0.008779,-0.002195 -0.013169,-0.002195s-0.006584,-0.002195 -0.010974,-0.002195c-1.718518,0 -3.110014,1.39369 -3.110014,3.110014l0,37.726198c0,11.274622 4.547599,21.497941 11.891357,28.964607l1.913854,1.784362zm27.535801,4.376406c-8.254595,0 -15.837585,-2.879561 -21.838133,-7.664197l40.38189,-41.082027l16.572838,-16.572838l0,30.202467c0,19.362413 -15.754183,35.116596 -35.116596,35.116596zm-0.493827,-68.446635l14.966254,14.964059l-0.452126,0.460905l-14.004937,14.004937l-14.968449,-14.968449l14.459258,-14.461453zm-34.624963,3.09465l30.893825,30.893825l-22.112481,22.49218c-5.447462,-6.1893 -8.781344,-14.279286 -8.781344,-23.152811l0,-30.233194zm-22.814813,102.4812c27.601644,1.505624 50.126746,22.378051 54.195881,49.229078l-24.952536,-24.950341c-1.213717,-1.218107 -3.184636,-1.218107 -4.398354,0c-1.215912,1.215912 -1.215912,3.182441 0,4.398354l25.68779,25.68779c-27.474347,-3.527023 -49.003015,-26.319889 -50.532781,-54.36488zm66.631546,54.171739l24.952536,-24.954731c1.215912,-1.215912 1.215912,-3.184636 0,-4.398354c-1.213717,-1.218107 -3.184636,-1.218107 -4.398354,0l-25.68779,25.689985c3.527023,-27.474347 26.319889,-49.005209 54.36488,-50.534976c-1.505624,27.601644 -22.378051,50.12894 -49.231272,54.198076z"/>
  </g>
 </g>
</svg>